<mxfile host="app.diagrams.net" modified="2024-04-29T01:15:13.998Z" agent="Mozilla/5.0 (Macintosh; Intel Mac OS X 10_15_7) AppleWebKit/605.1.15 (KHTML, like Gecko) Version/17.0 Safari/605.1.15" etag="dXqQb-AunS8_iO51nHuB" version="24.3.1" type="github">
  <diagram name="Page-1" id="2YBvvXClWsGukQMizWep">
    <mxGraphModel dx="1546" dy="1027" grid="1" gridSize="10" guides="1" tooltips="1" connect="1" arrows="1" fold="1" page="1" pageScale="1" pageWidth="850" pageHeight="1100" math="0" shadow="0">
      <root>
        <mxCell id="0" />
        <mxCell id="1" parent="0" />
        <mxCell id="r59iDptI2FhqhcnIjaQf-1" style="edgeStyle=orthogonalEdgeStyle;rounded=0;orthogonalLoop=1;jettySize=auto;html=1;exitX=1;exitY=0.5;exitDx=0;exitDy=0;entryX=0;entryY=0.5;entryDx=0;entryDy=0;" parent="1" source="r59iDptI2FhqhcnIjaQf-2" target="r59iDptI2FhqhcnIjaQf-10" edge="1">
          <mxGeometry relative="1" as="geometry" />
        </mxCell>
        <mxCell id="r59iDptI2FhqhcnIjaQf-2" value="Gyro" style="rounded=0;whiteSpace=wrap;html=1;fillColor=#d5e8d4;strokeColor=#82b366;" parent="1" vertex="1">
          <mxGeometry x="230" y="70" width="120" height="70" as="geometry" />
        </mxCell>
        <mxCell id="r59iDptI2FhqhcnIjaQf-3" style="edgeStyle=orthogonalEdgeStyle;rounded=0;orthogonalLoop=1;jettySize=auto;html=1;exitX=1;exitY=0.5;exitDx=0;exitDy=0;entryX=0;entryY=0.5;entryDx=0;entryDy=0;" parent="1" source="r59iDptI2FhqhcnIjaQf-4" target="r59iDptI2FhqhcnIjaQf-10" edge="1">
          <mxGeometry relative="1" as="geometry" />
        </mxCell>
        <mxCell id="r59iDptI2FhqhcnIjaQf-4" value="Accel" style="rounded=0;whiteSpace=wrap;html=1;fillColor=#d5e8d4;strokeColor=#82b366;" parent="1" vertex="1">
          <mxGeometry x="230" y="180" width="120" height="70" as="geometry" />
        </mxCell>
        <mxCell id="r59iDptI2FhqhcnIjaQf-5" style="edgeStyle=orthogonalEdgeStyle;rounded=0;orthogonalLoop=1;jettySize=auto;html=1;entryX=0;entryY=0.5;entryDx=0;entryDy=0;" parent="1" source="r59iDptI2FhqhcnIjaQf-6" target="r59iDptI2FhqhcnIjaQf-8" edge="1">
          <mxGeometry relative="1" as="geometry" />
        </mxCell>
        <mxCell id="r59iDptI2FhqhcnIjaQf-6" value="Mag" style="rounded=0;whiteSpace=wrap;html=1;fillColor=#f5f5f5;fontColor=#333333;strokeColor=#666666;" parent="1" vertex="1">
          <mxGeometry x="230" y="290" width="120" height="70" as="geometry" />
        </mxCell>
        <mxCell id="r59iDptI2FhqhcnIjaQf-7" style="edgeStyle=orthogonalEdgeStyle;rounded=0;orthogonalLoop=1;jettySize=auto;html=1;" parent="1" source="r59iDptI2FhqhcnIjaQf-8" target="r59iDptI2FhqhcnIjaQf-12" edge="1">
          <mxGeometry relative="1" as="geometry" />
        </mxCell>
        <mxCell id="r59iDptI2FhqhcnIjaQf-8" value="Live offset calibration" style="rounded=0;whiteSpace=wrap;html=1;fillColor=#dae8fc;strokeColor=#6c8ebf;" parent="1" vertex="1">
          <mxGeometry x="400" y="290" width="140" height="70" as="geometry" />
        </mxCell>
        <mxCell id="r59iDptI2FhqhcnIjaQf-9" style="edgeStyle=orthogonalEdgeStyle;rounded=0;orthogonalLoop=1;jettySize=auto;html=1;entryX=0;entryY=0.5;entryDx=0;entryDy=0;" parent="1" source="r59iDptI2FhqhcnIjaQf-10" target="r59iDptI2FhqhcnIjaQf-16" edge="1">
          <mxGeometry relative="1" as="geometry" />
        </mxCell>
        <mxCell id="r59iDptI2FhqhcnIjaQf-10" value="Sensor fusion&lt;div&gt;Initially Mahony&lt;/div&gt;" style="rounded=0;whiteSpace=wrap;html=1;fillColor=#d5e8d4;strokeColor=#82b366;" parent="1" vertex="1">
          <mxGeometry x="590" y="180" width="120" height="70" as="geometry" />
        </mxCell>
        <mxCell id="r59iDptI2FhqhcnIjaQf-11" style="edgeStyle=orthogonalEdgeStyle;rounded=0;orthogonalLoop=1;jettySize=auto;html=1;entryX=0;entryY=0.5;entryDx=0;entryDy=0;exitX=1;exitY=0.5;exitDx=0;exitDy=0;jumpStyle=arc;" parent="1" source="r59iDptI2FhqhcnIjaQf-2" target="r59iDptI2FhqhcnIjaQf-8" edge="1">
          <mxGeometry relative="1" as="geometry">
            <mxPoint x="360" y="335" as="sourcePoint" />
            <mxPoint x="420" y="335" as="targetPoint" />
          </mxGeometry>
        </mxCell>
        <mxCell id="r59iDptI2FhqhcnIjaQf-12" value="Save in flash" style="rounded=0;whiteSpace=wrap;html=1;fillColor=#f5f5f5;fontColor=#333333;strokeColor=#666666;" parent="1" vertex="1">
          <mxGeometry x="410" y="420" width="120" height="60" as="geometry" />
        </mxCell>
        <mxCell id="r59iDptI2FhqhcnIjaQf-13" style="edgeStyle=orthogonalEdgeStyle;rounded=0;orthogonalLoop=1;jettySize=auto;html=1;entryX=0.5;entryY=0;entryDx=0;entryDy=0;exitX=0.5;exitY=1;exitDx=0;exitDy=0;" parent="1" source="r59iDptI2FhqhcnIjaQf-14" target="r59iDptI2FhqhcnIjaQf-18" edge="1">
          <mxGeometry relative="1" as="geometry">
            <mxPoint x="995" y="130" as="sourcePoint" />
          </mxGeometry>
        </mxCell>
        <mxCell id="r59iDptI2FhqhcnIjaQf-14" value="Board rotation quaternion" style="rhombus;whiteSpace=wrap;html=1;fillColor=#dae8fc;strokeColor=#6c8ebf;" parent="1" vertex="1">
          <mxGeometry x="825" y="40" width="185" height="80" as="geometry" />
        </mxCell>
        <mxCell id="r59iDptI2FhqhcnIjaQf-15" style="edgeStyle=orthogonalEdgeStyle;rounded=0;orthogonalLoop=1;jettySize=auto;html=1;entryX=0;entryY=0.5;entryDx=0;entryDy=0;" parent="1" source="r59iDptI2FhqhcnIjaQf-16" target="r59iDptI2FhqhcnIjaQf-18" edge="1">
          <mxGeometry relative="1" as="geometry" />
        </mxCell>
        <mxCell id="r59iDptI2FhqhcnIjaQf-16" value="Quaternion" style="rhombus;whiteSpace=wrap;html=1;fillColor=#d5e8d4;strokeColor=#82b366;" parent="1" vertex="1">
          <mxGeometry x="735" y="175" width="150" height="80" as="geometry" />
        </mxCell>
        <mxCell id="r59iDptI2FhqhcnIjaQf-17" style="edgeStyle=orthogonalEdgeStyle;rounded=0;orthogonalLoop=1;jettySize=auto;html=1;entryX=0;entryY=0.5;entryDx=0;entryDy=0;" parent="1" source="r59iDptI2FhqhcnIjaQf-18" target="r59iDptI2FhqhcnIjaQf-21" edge="1">
          <mxGeometry relative="1" as="geometry" />
        </mxCell>
        <mxCell id="r59iDptI2FhqhcnIjaQf-18" value="Switch sensor frame" style="rounded=0;whiteSpace=wrap;html=1;fillColor=#dae8fc;strokeColor=#6c8ebf;" parent="1" vertex="1">
          <mxGeometry x="935" y="185" width="120" height="60" as="geometry" />
        </mxCell>
        <mxCell id="r59iDptI2FhqhcnIjaQf-19" style="edgeStyle=orthogonalEdgeStyle;rounded=0;orthogonalLoop=1;jettySize=auto;html=1;exitX=1;exitY=0.5;exitDx=0;exitDy=0;entryX=0;entryY=0.5;entryDx=0;entryDy=0;" parent="1" source="r59iDptI2FhqhcnIjaQf-8" target="r59iDptI2FhqhcnIjaQf-10" edge="1">
          <mxGeometry relative="1" as="geometry" />
        </mxCell>
        <mxCell id="r59iDptI2FhqhcnIjaQf-20" style="edgeStyle=orthogonalEdgeStyle;rounded=0;orthogonalLoop=1;jettySize=auto;html=1;entryX=0;entryY=0.5;entryDx=0;entryDy=0;" parent="1" source="r59iDptI2FhqhcnIjaQf-21" target="r59iDptI2FhqhcnIjaQf-29" edge="1">
          <mxGeometry relative="1" as="geometry" />
        </mxCell>
        <mxCell id="r59iDptI2FhqhcnIjaQf-21" value="Attitude quaternion" style="rhombus;whiteSpace=wrap;html=1;fillColor=#dae8fc;strokeColor=#6c8ebf;" parent="1" vertex="1">
          <mxGeometry x="1125" y="175" width="130" height="80" as="geometry" />
        </mxCell>
        <mxCell id="r59iDptI2FhqhcnIjaQf-22" style="edgeStyle=orthogonalEdgeStyle;rounded=0;orthogonalLoop=1;jettySize=auto;html=1;entryX=0;entryY=0.5;entryDx=0;entryDy=0;" parent="1" source="r59iDptI2FhqhcnIjaQf-23" target="r59iDptI2FhqhcnIjaQf-25" edge="1">
          <mxGeometry relative="1" as="geometry" />
        </mxCell>
        <mxCell id="r59iDptI2FhqhcnIjaQf-23" value="Arming action&lt;div&gt;Double click Power&lt;/div&gt;" style="shape=hexagon;perimeter=hexagonPerimeter2;whiteSpace=wrap;html=1;fixedSize=1;" parent="1" vertex="1">
          <mxGeometry x="1030" y="55" width="120" height="50" as="geometry" />
        </mxCell>
        <mxCell id="r59iDptI2FhqhcnIjaQf-24" style="edgeStyle=orthogonalEdgeStyle;rounded=0;orthogonalLoop=1;jettySize=auto;html=1;entryX=0;entryY=0.5;entryDx=0;entryDy=0;" parent="1" source="r59iDptI2FhqhcnIjaQf-25" target="r59iDptI2FhqhcnIjaQf-27" edge="1">
          <mxGeometry relative="1" as="geometry" />
        </mxCell>
        <mxCell id="r59iDptI2FhqhcnIjaQf-25" value="Save attitude quaternion" style="rounded=0;whiteSpace=wrap;html=1;fillColor=#fff2cc;strokeColor=#d6b656;" parent="1" vertex="1">
          <mxGeometry x="1190" y="50" width="120" height="60" as="geometry" />
        </mxCell>
        <mxCell id="r59iDptI2FhqhcnIjaQf-26" style="edgeStyle=orthogonalEdgeStyle;rounded=0;orthogonalLoop=1;jettySize=auto;html=1;entryX=0.5;entryY=0;entryDx=0;entryDy=0;" parent="1" source="r59iDptI2FhqhcnIjaQf-27" target="r59iDptI2FhqhcnIjaQf-29" edge="1">
          <mxGeometry relative="1" as="geometry" />
        </mxCell>
        <mxCell id="r59iDptI2FhqhcnIjaQf-27" value="Arming position quaternion" style="rhombus;whiteSpace=wrap;html=1;fillColor=#dae8fc;strokeColor=#6c8ebf;" parent="1" vertex="1">
          <mxGeometry x="1350" y="40" width="170" height="80" as="geometry" />
        </mxCell>
        <mxCell id="r59iDptI2FhqhcnIjaQf-28" style="edgeStyle=orthogonalEdgeStyle;rounded=0;orthogonalLoop=1;jettySize=auto;html=1;entryX=0.5;entryY=0;entryDx=0;entryDy=0;" parent="1" source="r59iDptI2FhqhcnIjaQf-29" target="r59iDptI2FhqhcnIjaQf-31" edge="1">
          <mxGeometry relative="1" as="geometry" />
        </mxCell>
        <mxCell id="r59iDptI2FhqhcnIjaQf-29" value="Control quaternion compute" style="rounded=0;whiteSpace=wrap;html=1;fillColor=#dae8fc;strokeColor=#6c8ebf;" parent="1" vertex="1">
          <mxGeometry x="1375" y="175" width="120" height="60" as="geometry" />
        </mxCell>
        <mxCell id="r59iDptI2FhqhcnIjaQf-30" style="edgeStyle=orthogonalEdgeStyle;rounded=0;orthogonalLoop=1;jettySize=auto;html=1;entryX=0.5;entryY=0;entryDx=0;entryDy=0;" parent="1" source="r59iDptI2FhqhcnIjaQf-31" target="r59iDptI2FhqhcnIjaQf-33" edge="1">
          <mxGeometry relative="1" as="geometry" />
        </mxCell>
        <mxCell id="r59iDptI2FhqhcnIjaQf-31" value="Control quaternion" style="rhombus;whiteSpace=wrap;html=1;fillColor=#dae8fc;strokeColor=#6c8ebf;" parent="1" vertex="1">
          <mxGeometry x="1365" y="295" width="140" height="80" as="geometry" />
        </mxCell>
        <mxCell id="r59iDptI2FhqhcnIjaQf-32" value="" style="edgeStyle=orthogonalEdgeStyle;rounded=0;orthogonalLoop=1;jettySize=auto;html=1;" parent="1" source="r59iDptI2FhqhcnIjaQf-33" target="r59iDptI2FhqhcnIjaQf-50" edge="1">
          <mxGeometry relative="1" as="geometry" />
        </mxCell>
        <mxCell id="r59iDptI2FhqhcnIjaQf-33" value="quaternion to input command (not Euler)" style="rounded=0;whiteSpace=wrap;html=1;fillColor=#dae8fc;strokeColor=#6c8ebf;" parent="1" vertex="1">
          <mxGeometry x="1375" y="430" width="120" height="60" as="geometry" />
        </mxCell>
        <mxCell id="r59iDptI2FhqhcnIjaQf-34" value="Trigger position" style="shape=hexagon;perimeter=hexagonPerimeter2;whiteSpace=wrap;html=1;fixedSize=1;fillColor=#fff2cc;strokeColor=#d6b656;" parent="1" vertex="1">
          <mxGeometry x="1115" y="340" width="120" height="50" as="geometry" />
        </mxCell>
        <mxCell id="r59iDptI2FhqhcnIjaQf-35" style="edgeStyle=orthogonalEdgeStyle;rounded=0;orthogonalLoop=1;jettySize=auto;html=1;exitX=0.5;exitY=1;exitDx=0;exitDy=0;entryX=0.5;entryY=0;entryDx=0;entryDy=0;" parent="1" source="r59iDptI2FhqhcnIjaQf-38" target="r59iDptI2FhqhcnIjaQf-41" edge="1">
          <mxGeometry relative="1" as="geometry" />
        </mxCell>
        <mxCell id="r59iDptI2FhqhcnIjaQf-36" style="edgeStyle=orthogonalEdgeStyle;rounded=0;orthogonalLoop=1;jettySize=auto;html=1;exitX=0;exitY=0.5;exitDx=0;exitDy=0;entryX=1;entryY=0.5;entryDx=0;entryDy=0;" parent="1" source="r59iDptI2FhqhcnIjaQf-38" target="r59iDptI2FhqhcnIjaQf-59" edge="1">
          <mxGeometry relative="1" as="geometry" />
        </mxCell>
        <mxCell id="r59iDptI2FhqhcnIjaQf-37" style="edgeStyle=orthogonalEdgeStyle;rounded=0;orthogonalLoop=1;jettySize=auto;html=1;exitX=1;exitY=0.5;exitDx=0;exitDy=0;entryX=0;entryY=0.5;entryDx=0;entryDy=0;" parent="1" source="r59iDptI2FhqhcnIjaQf-38" target="r59iDptI2FhqhcnIjaQf-62" edge="1">
          <mxGeometry relative="1" as="geometry" />
        </mxCell>
        <mxCell id="r59iDptI2FhqhcnIjaQf-38" value="Drone command" style="rhombus;whiteSpace=wrap;html=1;fillColor=#fff2cc;strokeColor=#d6b656;" parent="1" vertex="1">
          <mxGeometry x="1245" y="690" width="140" height="80" as="geometry" />
        </mxCell>
        <mxCell id="r59iDptI2FhqhcnIjaQf-39" value="Measure trigger position" style="rounded=0;whiteSpace=wrap;html=1;fillColor=#fff2cc;strokeColor=#d6b656;" parent="1" vertex="1">
          <mxGeometry x="1115" y="430" width="120" height="60" as="geometry" />
        </mxCell>
        <mxCell id="r59iDptI2FhqhcnIjaQf-40" style="edgeStyle=orthogonalEdgeStyle;rounded=0;orthogonalLoop=1;jettySize=auto;html=1;exitX=0.5;exitY=1;exitDx=0;exitDy=0;entryX=0.5;entryY=0;entryDx=0;entryDy=0;" parent="1" source="r59iDptI2FhqhcnIjaQf-41" target="r59iDptI2FhqhcnIjaQf-45" edge="1">
          <mxGeometry relative="1" as="geometry" />
        </mxCell>
        <mxCell id="r59iDptI2FhqhcnIjaQf-41" value="CRSF driver" style="rounded=0;whiteSpace=wrap;html=1;fillColor=#f5f5f5;fontColor=#333333;strokeColor=#666666;" parent="1" vertex="1">
          <mxGeometry x="1255" y="810" width="120" height="60" as="geometry" />
        </mxCell>
        <mxCell id="r59iDptI2FhqhcnIjaQf-42" style="edgeStyle=orthogonalEdgeStyle;rounded=0;orthogonalLoop=1;jettySize=auto;html=1;entryX=0.5;entryY=0;entryDx=0;entryDy=0;" parent="1" source="r59iDptI2FhqhcnIjaQf-43" target="r59iDptI2FhqhcnIjaQf-48" edge="1">
          <mxGeometry relative="1" as="geometry" />
        </mxCell>
        <mxCell id="r59iDptI2FhqhcnIjaQf-43" value="Throttle" style="rhombus;whiteSpace=wrap;html=1;fillColor=#fff2cc;strokeColor=#d6b656;" parent="1" vertex="1">
          <mxGeometry x="1110" y="535" width="130" height="50" as="geometry" />
        </mxCell>
        <mxCell id="r59iDptI2FhqhcnIjaQf-44" style="edgeStyle=orthogonalEdgeStyle;rounded=0;orthogonalLoop=1;jettySize=auto;html=1;exitX=0.5;exitY=1;exitDx=0;exitDy=0;entryX=0.5;entryY=0;entryDx=0;entryDy=0;" parent="1" source="r59iDptI2FhqhcnIjaQf-45" edge="1">
          <mxGeometry relative="1" as="geometry">
            <mxPoint x="1315" y="1040" as="targetPoint" />
          </mxGeometry>
        </mxCell>
        <mxCell id="r59iDptI2FhqhcnIjaQf-45" value="CRSF remote channels" style="rhombus;whiteSpace=wrap;html=1;fillColor=#f5f5f5;fontColor=#333333;strokeColor=#666666;" parent="1" vertex="1">
          <mxGeometry x="1215" y="920" width="200" height="80" as="geometry" />
        </mxCell>
        <mxCell id="r59iDptI2FhqhcnIjaQf-46" value="ELRS Module" style="rounded=0;whiteSpace=wrap;html=1;fillColor=#f5f5f5;fontColor=#333333;strokeColor=#666666;" parent="1" vertex="1">
          <mxGeometry x="1255" y="1040" width="120" height="60" as="geometry" />
        </mxCell>
        <mxCell id="r59iDptI2FhqhcnIjaQf-47" style="edgeStyle=orthogonalEdgeStyle;rounded=0;orthogonalLoop=1;jettySize=auto;html=1;entryX=0.5;entryY=0;entryDx=0;entryDy=0;" parent="1" source="r59iDptI2FhqhcnIjaQf-48" target="r59iDptI2FhqhcnIjaQf-38" edge="1">
          <mxGeometry relative="1" as="geometry" />
        </mxCell>
        <mxCell id="r59iDptI2FhqhcnIjaQf-48" value="Yaw, pitch, roll, throttle, mode slot" style="rounded=0;whiteSpace=wrap;html=1;fillColor=#fff2cc;strokeColor=#d6b656;" parent="1" vertex="1">
          <mxGeometry x="1255" y="600" width="120" height="60" as="geometry" />
        </mxCell>
        <mxCell id="r59iDptI2FhqhcnIjaQf-49" style="edgeStyle=orthogonalEdgeStyle;rounded=0;orthogonalLoop=1;jettySize=auto;html=1;" parent="1" source="r59iDptI2FhqhcnIjaQf-50" target="r59iDptI2FhqhcnIjaQf-48" edge="1">
          <mxGeometry relative="1" as="geometry" />
        </mxCell>
        <mxCell id="r59iDptI2FhqhcnIjaQf-50" value="Yaw, pitch, roll" style="rhombus;whiteSpace=wrap;html=1;fillColor=#dae8fc;strokeColor=#6c8ebf;" parent="1" vertex="1">
          <mxGeometry x="1377.5" y="530" width="115" height="60" as="geometry" />
        </mxCell>
        <mxCell id="r59iDptI2FhqhcnIjaQf-51" value="&lt;div&gt;Drone&lt;/div&gt;Simulator&lt;div&gt;for testing&lt;/div&gt;" style="whiteSpace=wrap;html=1;aspect=fixed;fillColor=#fff2cc;strokeColor=#d6b656;" parent="1" vertex="1">
          <mxGeometry x="930" y="690" width="80" height="80" as="geometry" />
        </mxCell>
        <mxCell id="r59iDptI2FhqhcnIjaQf-52" style="edgeStyle=orthogonalEdgeStyle;rounded=0;orthogonalLoop=1;jettySize=auto;html=1;entryX=0.5;entryY=0;entryDx=0;entryDy=0;" parent="1" source="r59iDptI2FhqhcnIjaQf-34" target="r59iDptI2FhqhcnIjaQf-39" edge="1">
          <mxGeometry relative="1" as="geometry" />
        </mxCell>
        <mxCell id="r59iDptI2FhqhcnIjaQf-53" style="edgeStyle=orthogonalEdgeStyle;rounded=0;orthogonalLoop=1;jettySize=auto;html=1;exitX=0.5;exitY=1;exitDx=0;exitDy=0;entryX=0.5;entryY=0;entryDx=0;entryDy=0;" parent="1" source="r59iDptI2FhqhcnIjaQf-39" target="r59iDptI2FhqhcnIjaQf-43" edge="1">
          <mxGeometry relative="1" as="geometry" />
        </mxCell>
        <mxCell id="r59iDptI2FhqhcnIjaQf-54" style="edgeStyle=orthogonalEdgeStyle;rounded=0;orthogonalLoop=1;jettySize=auto;html=1;entryX=0;entryY=0.5;entryDx=0;entryDy=0;" parent="1" target="r59iDptI2FhqhcnIjaQf-2" edge="1">
          <mxGeometry relative="1" as="geometry">
            <mxPoint x="134.99999999999955" y="215" as="sourcePoint" />
          </mxGeometry>
        </mxCell>
        <mxCell id="r59iDptI2FhqhcnIjaQf-55" style="edgeStyle=orthogonalEdgeStyle;rounded=0;orthogonalLoop=1;jettySize=auto;html=1;entryX=0;entryY=0.5;entryDx=0;entryDy=0;" parent="1" target="r59iDptI2FhqhcnIjaQf-4" edge="1">
          <mxGeometry relative="1" as="geometry">
            <mxPoint x="134.99999999999955" y="215" as="sourcePoint" />
          </mxGeometry>
        </mxCell>
        <mxCell id="r59iDptI2FhqhcnIjaQf-56" style="edgeStyle=orthogonalEdgeStyle;rounded=0;orthogonalLoop=1;jettySize=auto;html=1;entryX=0;entryY=0.5;entryDx=0;entryDy=0;" parent="1" target="r59iDptI2FhqhcnIjaQf-6" edge="1">
          <mxGeometry relative="1" as="geometry">
            <mxPoint x="134.99999999999955" y="215" as="sourcePoint" />
          </mxGeometry>
        </mxCell>
        <mxCell id="r59iDptI2FhqhcnIjaQf-57" value="Controller motion" style="shape=hexagon;perimeter=hexagonPerimeter2;whiteSpace=wrap;html=1;fixedSize=1;" parent="1" vertex="1">
          <mxGeometry x="15" y="187.5" width="120" height="55" as="geometry" />
        </mxCell>
        <mxCell id="r59iDptI2FhqhcnIjaQf-58" style="edgeStyle=orthogonalEdgeStyle;rounded=0;orthogonalLoop=1;jettySize=auto;html=1;exitX=0;exitY=0.5;exitDx=0;exitDy=0;entryX=1;entryY=0.5;entryDx=0;entryDy=0;" parent="1" source="r59iDptI2FhqhcnIjaQf-59" target="r59iDptI2FhqhcnIjaQf-51" edge="1">
          <mxGeometry relative="1" as="geometry" />
        </mxCell>
        <mxCell id="r59iDptI2FhqhcnIjaQf-59" value="Joystick USB device" style="rounded=0;whiteSpace=wrap;html=1;fillColor=#fff2cc;strokeColor=#d6b656;" parent="1" vertex="1">
          <mxGeometry x="1060" y="700" width="120" height="60" as="geometry" />
        </mxCell>
        <mxCell id="r59iDptI2FhqhcnIjaQf-60" style="edgeStyle=orthogonalEdgeStyle;rounded=0;orthogonalLoop=1;jettySize=auto;html=1;exitX=0.5;exitY=1;exitDx=0;exitDy=0;entryX=0.5;entryY=0;entryDx=0;entryDy=0;" parent="1" source="r59iDptI2FhqhcnIjaQf-61" target="r59iDptI2FhqhcnIjaQf-64" edge="1">
          <mxGeometry relative="1" as="geometry" />
        </mxCell>
        <mxCell id="r59iDptI2FhqhcnIjaQf-61" value="Mode button press" style="shape=hexagon;perimeter=hexagonPerimeter2;whiteSpace=wrap;html=1;fixedSize=1;fillColor=#f5f5f5;fontColor=#333333;strokeColor=#666666;" parent="1" vertex="1">
          <mxGeometry x="930" y="340" width="120" height="45" as="geometry" />
        </mxCell>
        <mxCell id="r59iDptI2FhqhcnIjaQf-62" value="Betaflight style rotating drone sceleton in Python plot" style="rounded=0;whiteSpace=wrap;html=1;fillColor=#ffe6cc;strokeColor=#d79b00;" parent="1" vertex="1">
          <mxGeometry x="1450" y="700" width="180" height="60" as="geometry" />
        </mxCell>
        <mxCell id="r59iDptI2FhqhcnIjaQf-63" style="edgeStyle=orthogonalEdgeStyle;rounded=0;orthogonalLoop=1;jettySize=auto;html=1;entryX=0.5;entryY=0;entryDx=0;entryDy=0;" parent="1" source="r59iDptI2FhqhcnIjaQf-64" target="r59iDptI2FhqhcnIjaQf-71" edge="1">
          <mxGeometry relative="1" as="geometry" />
        </mxCell>
        <mxCell id="r59iDptI2FhqhcnIjaQf-64" value="Handle mode switch" style="rounded=0;whiteSpace=wrap;html=1;fillColor=#f5f5f5;fontColor=#333333;strokeColor=#666666;" parent="1" vertex="1">
          <mxGeometry x="930" y="430" width="120" height="60" as="geometry" />
        </mxCell>
        <mxCell id="r59iDptI2FhqhcnIjaQf-65" value="Done" style="ellipse;whiteSpace=wrap;html=1;aspect=fixed;fillColor=#d5e8d4;strokeColor=#82b366;" parent="1" vertex="1">
          <mxGeometry x="230" y="580" width="80" height="80" as="geometry" />
        </mxCell>
        <mxCell id="r59iDptI2FhqhcnIjaQf-66" value="Port over" style="ellipse;whiteSpace=wrap;html=1;aspect=fixed;fillColor=#dae8fc;strokeColor=#6c8ebf;" parent="1" vertex="1">
          <mxGeometry x="230" y="670" width="80" height="80" as="geometry" />
        </mxCell>
        <mxCell id="r59iDptI2FhqhcnIjaQf-67" value="Todo" style="ellipse;whiteSpace=wrap;html=1;aspect=fixed;fillColor=#fff2cc;strokeColor=#d6b656;" parent="1" vertex="1">
          <mxGeometry x="230" y="760" width="80" height="80" as="geometry" />
        </mxCell>
        <mxCell id="r59iDptI2FhqhcnIjaQf-68" value="Backlog" style="ellipse;whiteSpace=wrap;html=1;aspect=fixed;fillColor=#f5f5f5;strokeColor=#666666;fontColor=#333333;" parent="1" vertex="1">
          <mxGeometry x="230" y="850" width="80" height="80" as="geometry" />
        </mxCell>
        <mxCell id="r59iDptI2FhqhcnIjaQf-69" value="&lt;b&gt;&lt;font style=&quot;font-size: 19px;&quot;&gt;What colors mean:&lt;/font&gt;&lt;/b&gt;" style="text;html=1;align=left;verticalAlign=middle;whiteSpace=wrap;rounded=0;" parent="1" vertex="1">
          <mxGeometry x="230" y="540" width="220" height="30" as="geometry" />
        </mxCell>
        <mxCell id="r59iDptI2FhqhcnIjaQf-70" style="edgeStyle=orthogonalEdgeStyle;rounded=0;orthogonalLoop=1;jettySize=auto;html=1;entryX=0;entryY=0.5;entryDx=0;entryDy=0;" parent="1" source="r59iDptI2FhqhcnIjaQf-71" target="r59iDptI2FhqhcnIjaQf-48" edge="1">
          <mxGeometry relative="1" as="geometry" />
        </mxCell>
        <mxCell id="r59iDptI2FhqhcnIjaQf-71" value="Flight mode" style="rhombus;whiteSpace=wrap;html=1;fillColor=#f5f5f5;fontColor=#333333;strokeColor=#666666;" parent="1" vertex="1">
          <mxGeometry x="930" y="570" width="120" height="40" as="geometry" />
        </mxCell>
      </root>
    </mxGraphModel>
  </diagram>
</mxfile>
